<svg version="1" xmlns="http://www.w3.org/2000/svg" width="933.333" height="933.333" viewBox="0 0 700.000000 700.000000"><path d="M339.7 48.6c-.1.1-3.6.4-7.7.8-4.1.3-8.8.8-10.5 1.1-1.6.3-4.3.7-6 1-16.3 2.7-38.3 10.1-53.5 17.8-12.5 6.4-17.1 9.3-29.9 18.9-35.9 26.9-60.1 62.9-72 106.8-1.9 6.9-2.5 10-3.6 17-.2 1.4-.7 4.5-1.1 7-1.2 8-1.4 10.3-1.5 24-.1 13.4.2 18.1 2.2 31.5 2 13.1 3.8 20.6 8.6 34.4 18.5 54.4 62.5 99.4 117 119.6 22.6 8.3 43.7 12 68.3 11.9 19.4-.1 27.1-.9 44.8-5 15.1-3.5 24.7-6.9 39.9-14 3.9-1.9 7.5-3.4 7.8-3.4.8 0 0 50.5-.8 53.8-4.6 17.8-9.1 28.1-16.9 38.7-23.1 31.1-61 44.4-99.8 34.9-6.6-1.6-8.8-2.5-19.5-7.2-21.4-9.6-42.8-31.7-50-51.7-1-2.8-2-5.2-2.1-5.3-.3-.4-13.5 3.2-47.4 12.8-11.3 3.2-27.5 7.7-36 10-8.5 2.4-15.6 4.4-15.8 4.5-.1.1 1.4 4.9 3.4 10.6 16.9 48.9 56.4 91.3 105.9 113.6 21.5 9.7 32.9 12.9 64.5 18.2 6.7 1.1 41.5.6 49-.8 11.3-2 12.3-2.2 22.4-4.8 9-2.3 19.9-5.9 25.1-8.3 1.1-.5 5.6-2.5 10-4.5 26.5-12.1 54.1-35 73.6-61 15-20 26.4-44.8 32.8-71.5 3.1-12.8 3.6-16 4.7-29 .8-8.8 1.1-421.9.4-422.1-.3-.1-23.6-.3-51.7-.4l-51.3-.1V72l-5.4-2.9c-3-1.6-7.7-3.7-10.3-4.7-2.6-.9-5.2-2.1-5.8-2.4-3-2.2-27.6-9.1-37.5-10.5-2.4-.4-4.7-.8-5-1-1.5-.9-38.2-2.7-39.3-1.9zM365 153.1c24 3.5 47.7 18.7 61.8 39.6 7.2 10.7 11.2 20.6 14.8 37.3.3 1.4.7 7.2.8 13 .7 25.6-9.1 49.8-27.7 67.7-14.9 14.5-34.4 24.1-52.7 25.8-11.4 1.1-13.7 1.2-20.5.4-15.1-1.7-18.3-2.5-32-8.9-22.7-10.6-40.8-31.7-48.4-56.4-2.8-9.2-3.6-15.1-3.6-27.6 0-12.5.6-17.2 3.5-26.5 7.6-24.4 26.3-46.1 48.8-56.6 18.7-8.7 34.3-10.9 55.2-7.8z"/></svg>