<?xml version="1.0" encoding="utf-8"?>
<svg version="1.1" id="Calque_1" xmlns="http://www.w3.org/2000/svg" xmlns:xlink="http://www.w3.org/1999/xlink" x="0px" y="0px"
	 viewBox="0 0 800 800" style="enable-background:new 0 0 800 800;" xml:space="preserve">
<path d="M506.31,82.13C474.63,65,438.37,55.25,399.82,55.25c-123.87,0-224.29,100.42-224.29,224.29
	c0,123.87,100.42,224.28,224.29,224.28c38.54,0,74.81-9.74,106.49-26.87v43.59c0,58.72-47.77,106.49-106.49,106.49
	c-49.56,0-97.94-34.12-110.15-77.67l-113.67,31.84c26.6,94.96,120.72,163.88,223.81,163.88c123.81,0,224.54-100.73,224.54-224.54
	V55.25H506.31V82.13z M399.82,385.78c-58.58,0-106.24-47.66-106.24-106.24S341.24,173.3,399.82,173.3s106.24,47.66,106.24,106.24
	S458.4,385.78,399.82,385.78z"/>
</svg>
