<svg role="img" version="1.2" baseProfile="tiny"
	 xmlns="http://www.w3.org/2000/svg" xmlns:xlink="http://www.w3.org/1999/xlink" x="0px" y="0px" width="870.236px"
	 height="375.789px" viewBox="0 0 870.236 375.789" xml:space="preserve">
	 <title>Golden Mama</title>
<g>
	<path d="M226.954,105.921c17.855,0,32.381,14.526,32.381,32.381s-14.526,32.382-32.381,32.382
		s-32.381-14.527-32.381-32.382S209.099,105.921,226.954,105.921 M226.954,69.942c-37.754,0-68.36,30.606-68.36,68.36
		c0,37.755,30.606,68.361,68.36,68.361s68.36-30.606,68.36-68.361C295.314,100.548,264.708,69.942,226.954,69.942"/>
	<path d="M115.491,69.941v8.191c-9.657-5.221-20.71-8.191-32.458-8.191c-37.754,0-68.36,30.606-68.36,68.361
		c0,37.754,30.606,68.359,68.36,68.359c11.748,0,22.801-2.969,32.458-8.189v13.287c0,17.898-14.56,32.459-32.458,32.459
		c-15.105,0-29.852-10.4-33.573-23.675l-34.644,9.705c8.106,28.94,36.795,49.948,68.217,49.948
		c37.735,0,68.437-30.702,68.437-68.438V69.941H115.491z M83.033,170.684c-17.855,0-32.381-14.526-32.381-32.381
		s14.526-32.381,32.381-32.381s32.381,14.526,32.381,32.381S100.888,170.684,83.033,170.684"/>
	<path d="M687.842,69.129c-9.936,0-19.004,3.443-26.953,9.042v-8.23h-35.979v66.449V206.3h35.979v-69.909
		c0-20.172,9.571-31.282,26.953-31.282s26.953,11.11,26.953,31.282V206.3h35.979v-69.909
		C750.773,96.16,725.482,69.129,687.842,69.129"/>
	<path d="M446.207,14.557V77.77c-9.656-5.221-20.708-8.189-32.457-8.189c-37.754,0-68.36,30.605-68.36,68.36
		c0,37.754,30.606,68.36,68.36,68.36c11.748,0,22.8-2.969,32.457-8.189v8.188h35.979V14.557H446.207z M413.75,170.322
		c-17.855,0-32.381-14.526-32.381-32.381c0-17.855,14.526-32.381,32.381-32.381s32.381,14.526,32.381,32.381
		C446.132,155.796,431.605,170.322,413.75,170.322"/>
	<rect x="302.047" y="14.174" width="35.979" height="192.126"/>
	<path d="M618.349,136.617v12.174h-90.143c0.791,16.844,11.299,26.429,30.489,26.429
		c13.139,0,23.39-5.699,29.172-13.471l26.54,21.243c-13.931,15.804-31.538,23.577-56.503,23.577
		c-41.788,0-68.593-28.503-68.593-67.879c0-39.377,27.331-68.652,67.018-68.652C598.118,70.038,618.349,100.605,618.349,136.617
		 M528.206,124.702h52.04c-0.528-14.771-9.467-25.909-25.236-25.909C539.241,98.792,528.997,109.67,528.206,124.702"/>
	<path d="M471.085,226.45v8.19c-9.657-5.22-20.709-8.188-32.458-8.188c-37.754,0-68.36,30.604-68.36,68.359
		c0,37.754,30.606,68.36,68.36,68.36c11.749,0,22.801-2.969,32.458-8.19v8.274h35.979V226.45H471.085z M438.627,327.192
		c-17.855,0-32.381-14.525-32.381-32.381c0-17.854,14.526-32.381,32.381-32.381c17.854,0,32.381,14.526,32.381,32.381
		C471.008,312.667,456.481,327.192,438.627,327.192"/>
	<path d="M820.084,226.45v8.19c-9.656-5.22-20.709-8.188-32.457-8.188c-37.755,0-68.36,30.604-68.36,68.359
		c0,37.754,30.605,68.36,68.36,68.36c11.748,0,22.801-2.969,32.457-8.19v8.274h35.979V226.45H820.084z M787.627,327.192
		c-17.855,0-32.382-14.525-32.382-32.381c0-17.854,14.526-32.381,32.382-32.381c17.854,0,32.381,14.526,32.381,32.381
		C820.008,312.667,805.481,327.192,787.627,327.192"/>
	<path d="M305.478,226.268c-14.212,0-28.486,5.184-39.222,16.148c-10.737-10.965-22.605-16.148-36.817-16.148
		c-7.222,0-18.008,3.143-23.641,7.705v-6.894h-35.98v66.449v69.909h35.98v-69.909c0-9.405,2.069-31.282,21.236-31.282
		c19.163,0,21.232,21.877,21.232,31.282v69.909h35.979v-69.909c0-9.405,2.07-31.282,21.233-31.282
		c19.167,0,21.236,21.877,21.236,31.282v69.909h35.979v-69.909C362.693,247.064,333.956,226.268,305.478,226.268"/>
	<path d="M654.22,226.268c-14.212,0-28.485,5.184-39.223,16.148c-10.736-10.965-22.604-16.148-36.816-16.148
		c-7.223,0-18.008,3.143-23.642,7.705v-6.894h-35.979v66.449v69.909h35.979v-69.909c0-9.405,2.069-31.282,21.236-31.282
		c19.163,0,21.232,21.877,21.232,31.282v69.909h35.979v-69.909c0-9.405,2.07-31.282,21.233-31.282
		c19.167,0,21.235,21.877,21.235,31.282v69.909h35.979v-69.909C711.435,247.064,682.697,226.268,654.22,226.268"/>
</g>
</svg>
