<svg role="img" version="1.2" baseProfile="tiny"
	 xmlns="http://www.w3.org/2000/svg" xmlns:xlink="http://www.w3.org/1999/xlink" x="0px" y="0px" width="800px"
	 height="375.7px" viewBox="0 0 800 375.7" xml:space="preserve">
	 <title>Guru</title>
<g>
	<path d="M173.386,50.03c-14.675-7.933-31.472-12.446-49.325-12.446c-57.373,0-103.884,46.511-103.884,103.885
		c0,57.373,46.511,103.883,103.884,103.883c17.853,0,34.65-4.512,49.325-12.444v20.191c0,27.198-22.126,49.325-49.326,49.325
		c-22.954,0-45.364-15.804-51.018-35.977l-52.647,14.748C32.713,325.176,76.311,357.1,124.06,357.1
		c57.346,0,104.002-46.655,104.002-104.001V37.583h-54.676V50.03z M124.062,190.677c-27.134,0-49.208-22.075-49.208-49.208
		c0-27.134,22.074-49.209,49.208-49.209c27.134,0,49.208,22.075,49.208,49.209C173.27,168.602,151.195,190.677,124.062,190.677"/>
	<path d="M526.931,64.531l-0.18-26.377h-54.938v206.649h57.874V118.074c11.416-14.565,26.377-26.376,49.998-26.376
		h4.727V37.583C556.459,37.583,536.771,48.39,526.931,64.531"/>
	<path d="M384.559,174.098c-7.52,11.65-25.711,22.555-43.758,22.555c-18.793,0-29.32-14.285-29.32-34.958V37.583
		H256.22v127.119c0,51.125,23.681,83.826,68.797,83.826c27.439,0,52.4-10.522,62.546-24.431l2.635,20.674h49.622V37.583h-55.261
		V174.098z"/>
	<path d="M734.301,37.583v136.515c-7.52,11.65-25.711,22.555-43.759,22.555c-18.792,0-29.321-14.285-29.321-34.959
		V37.583h-55.259v127.119c0,51.125,23.681,83.826,68.796,83.826c27.439,0,52.398-10.521,62.545-24.431l2.637,20.674h49.62V37.583
		H734.301z"/>
</g>
</svg>
