<svg version="1.2" baseProfile="tiny"
	 xmlns="http://www.w3.org/2000/svg" xmlns:xlink="http://www.w3.org/1999/xlink" x="0px" y="0px" width="870.236px"
	 height="375.789px" viewBox="0 0 870.236 375.789" xml:space="preserve">
<g>
	<path d="M173.386,50.03c-14.675-7.933-31.472-12.446-49.325-12.446c-57.373,0-103.884,46.511-103.884,103.885
		c0,57.373,46.511,103.883,103.884,103.883c17.853,0,34.65-4.512,49.325-12.444v20.191c0,27.198-22.126,49.325-49.326,49.325
		c-22.954,0-45.364-15.804-51.018-35.977l-52.647,14.748C32.713,325.176,76.311,357.1,124.06,357.1
		c57.346,0,104.002-46.655,104.002-104.001V37.583h-54.676V50.03z M124.062,190.677c-27.134,0-49.208-22.075-49.208-49.208
		c0-27.134,22.074-49.209,49.208-49.209c27.134,0,49.208,22.075,49.208,49.209C173.27,168.602,151.195,190.677,124.062,190.677"/>
	<path d="M526.931,64.531l-0.18-26.377h-54.938v206.649h57.874V118.074c11.416-14.565,26.377-26.376,49.998-26.376
		h4.727V37.583C556.459,37.583,536.771,48.39,526.931,64.531"/>
	<path d="M384.559,174.098c-7.52,11.65-25.711,22.555-43.758,22.555c-18.793,0-29.32-14.285-29.32-34.958V37.583
		H256.22v127.119c0,51.125,23.681,83.826,68.797,83.826c27.439,0,52.4-10.522,62.546-24.431l2.635,20.674h49.622V37.583h-55.261
		V174.098z"/>
	<path d="M734.301,37.583v136.515c-7.52,11.65-25.711,22.555-43.759,22.555c-18.792,0-29.321-14.285-29.321-34.959
		V37.583h-55.259v127.119c0,51.125,23.681,83.826,68.796,83.826c27.439,0,52.398-10.521,62.545-24.431l2.637,20.674h49.62V37.583
		H734.301z"/>
	<path d="M848.481,37.611c0,11.378-8.296,19.674-19.304,19.674c-11.188,0-19.305-8.296-19.305-19.674
		c0-11.245,8.116-19.73,19.305-19.73C840.186,17.881,848.481,26.366,848.481,37.611 M814.851,37.611
		c0,8.609,5.964,15.123,14.327,15.123c8.238,0,14.325-6.514,14.325-15.123c0-8.542-6.087-15.179-14.325-15.179
		C820.814,22.432,814.851,29.069,814.851,37.611 M829.728,26.916c4.001,0,7.509,2.522,7.509,6.884c0,2.892-1.546,4.977-3.688,6.153
		l4.663,7.803h-5.717l-4.058-6.883h-2.209v6.883h-4.979v-20.84H829.728z M826.229,31.401v5.044h3.015
		c1.783,0,3.006-0.796,3.006-2.579c0-1.725-1.223-2.465-3.006-2.465H826.229z"/>
</g>
</svg>
